<?xml version="1.0" encoding="UTF-8"?>
<svg id="svg1" version="1.1" viewBox="0 0 24 24" xmlns="http://www.w3.org/2000/svg">
 <path id="path1" d="m15.711 1-12.432 5.1309c-0.75 0.29-1.2793 1.0191-1.2793 1.8691v12a2 2 0 0 0 2 2h16a2 2 0 0 0 2-2v-12a2 2 0 0 0-2-2h-11.17l7.6406-3.1699-0.75976-1.8301zm-11.711 7h16v4h-2v-2h-2v2h-12v-4zm3 6a3 3 0 0 1 3 3 3 3 0 0 1-3 3 3 3 0 0 1-3-3 3 3 0 0 1 3-3zm5 0h2.666v1.1992h-1.7773v1.2012h1.334v1.1992h-1.334v2.4004h-0.88867v-6zm4.4453 0h2.666a0.88889 1.2 0 0 1 0.88867 1.1992v4.8008h-0.88867v-4.8008h-0.88867v4.2012h-0.88867v-4.2012h-0.88867v4.8008h-0.89062v-4.8008a0.88889 1.2 0 0 1 0.89062-1.1992z" fill="#000"/>
</svg>
